PathFileType	4	(X/Y/Z)	 s07c0001.trc
DataRate	CameraRate	NumFrames	NumMarkers	Units	OrigDataRate	OrigDataStartFrame	OrigNumFrames
200	200	4	49	mm	200	1751	2000
Frame#	Time	racr			lacr			c7			jug			rlel			rdr			llel			ldr			s2			lic			ric			lasi			rasi			rpsi			lpsi			rgt			lgt			rth1			rth2			rth3			rth4			rlfc			rmfc			rsh1			rsh2			rsh3			rsh4			rlmal			rmmal			rcal			rtoe			rmt5			rmt1			lth1			lth2			lth4			lth3			llfc			lmfc			lsh1			lsh2			lsh3			lsh4			llmal			lmmal			lcal			ltoe			lmt1			lmt5			
		X1	Y1	Z1	X2	Y2	Z2	X3	Y3	Z3	X4	Y4	Z4	X5	Y5	Z5	X6	Y6	Z6	X7	Y7	Z7	X8	Y8	Z8	X9	Y9	Z9	X10	Y10	Z10	X11	Y11	Z11	X12	Y12	Z12	X13	Y13	Z13	X14	Y14	Z14	X15	Y15	Z15	X16	Y16	Z16	X17	Y17	Z17	X18	Y18	Z18	X19	Y19	Z19	X20	Y20	Z20	X21	Y21	Z21	X22	Y22	Z22	X23	Y23	Z23	X24	Y24	Z24	X25	Y25	Z25	X26	Y26	Z26	X27	Y27	Z27	X28	Y28	Z28	X29	Y29	Z29	X30	Y30	Z30	X31	Y31	Z31	X32	Y32	Z32	X33	Y33	Z33	X34	Y34	Z34	X35	Y35	Z35	X36	Y36	Z36	X37	Y37	Z37	X38	Y38	Z38	X39	Y39	Z39	X40	Y40	Z40	X41	Y41	Z41	X42	Y42	Z42	X43	Y43	Z43	X44	Y44	Z44	X45	Y45	Z45	X46	Y46	Z46	X47	Y47	Z47	X48	Y48	Z48	X49	Y49	Z49	
1751	8.7550	193.342863	1568.559799	560.573076	218.061673	1566.770030	189.944653	158.748825	1606.040305	372.660594	280.757409	1516.271195	381.229484	262.454312	1224.649129	693.413075	413.953672	987.748020	805.837825	295.136829	1212.798285	94.371045	449.987655	974.856299	-8.331580	128.894508	1061.338750	364.284196	274.733214	1143.165910	228.341351	261.262481	1131.468403	532.437992	339.415746	1074.836499	261.359062	309.439498	1072.311416	524.878246	NaN	NaN	NaN	158.103730	1103.235342	308.890692	224.459150	975.816775	560.652880	257.015802	973.320161	210.719570	232.152708	847.039502	563.206291	254.314955	761.826204	555.658098	233.232527	679.163195	546.690399	290.631453	763.474726	548.187638	230.160016	537.670047	512.479314	239.136574	526.710530	416.767792	187.987223	400.610280	529.242043	203.972421	314.205548	509.794642	173.885095	232.996747	503.663940	226.928676	317.803430	477.233469	159.411041	92.183038	488.499451	200.529754	105.541425	409.932326	114.011442	41.462527	447.042802	395.583244	85.714816	505.314175	311.049253	36.083109	557.025134	328.328910	43.754889	449.488653	265.343384	855.818379	196.727675	287.060157	770.718951	204.177648	321.553625	771.058197	218.514349	262.459043	685.607350	212.086643	254.552274	531.046357	240.353715	248.234779	515.322954	328.219322	217.950228	396.363488	215.161245	233.159125	313.894293	236.570209	204.865550	227.273596	232.462160	243.119576	317.178655	276.804176	190.956974	91.468518	243.694387	225.374182	111.832520	324.883571	141.649568	37.716009	280.107492	423.382983	92.537068	249.197435	359.118589	47.290826	297.298677	345.703740	52.846902	192.193260	
1752	8.7600	193.386017	1568.560953	560.594905	218.103694	1566.787971	189.967600	158.769978	1606.042304	372.690325	280.771688	1516.276909	381.238110	262.459025	1224.658651	693.454469	413.979856	987.755602	805.865727	295.137912	1212.795753	94.388765	449.995600	974.859177	-8.311703	128.921337	1061.339932	364.304400	274.701185	1143.182784	228.352790	261.278894	1131.472866	532.451335	339.416425	1074.837235	261.344573	309.455312	1072.307532	524.885231	NaN	NaN	NaN	158.131908	1103.231243	308.911048	224.474424	975.816717	560.668030	257.022199	973.309536	210.736810	232.181356	847.039592	563.214283	254.350924	761.819479	555.673775	233.255015	679.169766	546.710522	290.667865	763.496409	548.197550	230.179357	537.640845	512.479965	239.144516	526.708538	416.774557	188.012833	400.605111	529.253145	203.988939	314.206940	509.794787	173.869209	232.993009	503.671604	226.915283	317.794265	477.224098	159.425000	92.194382	488.507590	200.512340	105.535755	409.933707	114.011445	41.462540	447.042807	395.594621	85.713453	505.327080	311.071168	36.082884	557.010889	328.321030	43.754505	449.472269	265.360096	855.810288	196.753998	287.060811	770.725324	204.174879	321.551894	771.074501	218.562957	262.467993	685.590991	212.078733	254.548386	531.067309	240.344365	248.234778	515.322950	328.219322	217.960526	396.353190	215.165224	233.170548	313.898404	236.565737	204.858401	227.259100	232.461215	243.122552	317.156517	276.783938	190.953857	91.474148	243.720275	225.387485	111.844191	324.885305	141.660695	37.699530	280.111829	423.370356	92.538512	249.193172	359.102252	47.261601	297.272429	345.712495	52.856567	192.192758	
1753	8.7650	193.425345	1568.572687	560.603301	218.124581	1566.801020	189.981337	158.795299	1606.046914	372.689283	280.813683	1516.287127	381.261303	262.493919	1224.668533	693.452132	414.004215	987.762573	805.905426	295.141486	1212.809326	94.398089	449.971262	974.868845	-8.326861	128.930208	1061.338204	364.321350	274.735564	1143.168732	228.377201	261.304565	1131.486361	532.474895	339.412651	1074.843794	261.352225	309.474728	1072.306081	524.893886	NaN	NaN	NaN	158.140168	1103.243301	308.919794	224.501699	975.810688	560.676523	257.022873	973.317289	210.736473	232.185108	847.046210	563.229029	254.355096	761.794867	555.678884	233.261514	679.179201	546.723972	290.685478	763.486603	548.186604	230.183934	537.654337	512.498025	239.141062	526.713454	416.761860	188.010665	400.616838	529.258589	203.995851	314.198115	509.806269	173.885369	233.009286	503.675146	226.934837	317.793070	477.232442	159.436127	92.188845	488.506885	200.535115	105.527563	409.941900	114.011447	41.462556	447.042812	395.592807	85.720224	505.303761	311.049252	36.083109	557.025130	328.332031	43.762419	449.465767	265.362297	855.810907	196.754028	287.070458	770.727019	204.170145	321.559651	771.091704	218.554042	262.478407	685.607895	212.089453	254.556576	531.069999	240.351549	248.236051	515.328563	328.236385	217.969494	396.352533	215.170306	233.165873	313.911919	236.572312	204.883782	227.270749	232.468164	243.128927	317.149170	276.764062	190.969178	91.478983	243.709485	225.374421	111.846988	324.882059	141.650909	37.712019	280.107103	423.380432	92.536570	249.184901	359.139801	47.276292	297.318362	345.735619	52.852833	192.192448	
1754	8.7700	193.462741	1568.580613	560.627863	218.143465	1566.796633	190.004026	158.818150	1606.047229	372.690323	280.839466	1516.304502	381.268746	262.505302	1224.669812	693.491796	414.018508	987.763614	805.926446	295.140585	1212.808540	94.396764	449.965387	974.868730	-8.318363	128.938051	1061.344209	364.333825	274.740312	1143.181543	228.386194	261.328028	1131.477616	532.487637	339.426303	1074.845440	261.359296	309.485714	1072.317380	524.897174	NaN	NaN	NaN	158.142176	1103.247992	308.939560	224.524665	975.809455	560.687482	257.040700	973.335384	210.757928	232.196624	847.042292	563.239557	254.376059	761.807186	555.709669	233.284669	679.161993	546.725976	290.713050	763.480348	548.192436	230.191416	537.684362	512.504400	239.172591	526.722065	416.785216	188.029894	400.605351	529.259946	203.990001	314.202139	509.799049	173.903134	232.998052	503.683109	226.930475	317.782632	477.229379	159.428690	92.189573	488.509076	200.528489	105.531273	409.933403	113.996943	41.454620	447.027588	395.594755	85.704214	505.314419	311.043355	36.079392	557.013530	328.331794	43.759594	449.474353	265.359828	855.815702	196.756920	287.070069	770.727099	204.169315	321.557958	771.101325	218.557689	262.471283	685.618018	212.101458	254.558988	531.066046	240.346797	248.265375	515.318886	328.234619	217.974612	396.362376	215.183960	233.167592	313.908891	236.566487	204.884558	227.270375	232.470767	243.129354	317.147242	276.764495	190.955514	91.487293	243.707368	225.370625	111.840784	324.883859	141.650862	37.725160	280.110452	423.379475	92.533948	249.196161	359.140965	47.345052	297.314018	345.715266	52.856422	192.193566	
